SOURCE: DVD9
 
http://www.imdb.com/title/tt0200720/

-SUBTITLES: English

-SAMPLE: Yes

-LANGUAGE: English

-RUNTIME: 2h 14m


DIRECTOR: Terence Davies


CAST:
--------
Gillian Anderson, Dan Aykroyd, Terry Kinney, Anthony LaPaglia, Laura Linney, Elizabeth McGovern, Eric Stoltz

PLOT:
----------
Terence Davies' The House of Mirth is a tragic love story set against a background of wealth and social hypocrisy in turn of the century New York. Lily Bart is a ravishing socialite at the height of her success who quickly discovers the precariousness of her position when her beauty and charm start attracting unwelcome interest and jealousy. Torn between her heart and her head, Lilly always seems to do the right thing at the wrong time. She seeks a wealthy husband and in trying to conform to social expectations, she misses her chance for real love with
Lawrence Selden.


General
---------

Format : AVI
Format/Info : Audio Video Interleave
File size : 1.37 GiB
Duration : 2h 14mn
Overall bit rate : 1 454 Kbps
Writing application : VirtualDubMod 1.5.10.3
Writing library : VirtualDubMod build 2550/release

Video
-------------

Format : MPEG-4 Visual
Format profile : Advanced Simple@L5
Format settings, BVOP : 1
Format settings, QPel : No
Format settings, GMC : No warppoints
Format settings, Matrix : Custom
Codec ID : XVID
Codec ID/Hint : XviD
Duration : 2h 14mn
Bit rate : 1 255 Kbps
Width : 720 pixels
Height : 400 pixels
Display aspect ratio : 16:9
Frame rate : 25.000 fps
Color space : YUV
Chroma subsampling : 4:2:0
Bit depth : 8 bits
Scan type : Progressive
Compression mode : Lossy
Bits/(Pixel*Frame) : 0.174
Stream size : 1.18 GiB (86%)
Writing library : XviD 64

Audio
-----------

Format : AC-3
Format/Info : Audio Coding 3
Mode extension : CM (complete main)
Format settings, Endianness : Big
Codec ID : 2000
Duration : 2h 14mn
Bit rate mode : Constant
Bit rate : 192 Kbps
Channel(s) : 2 channels
Channel positions : Front: L R
Sampling rate : 48.0 KHz
Bit depth : 16 bits
Compression mode : Lossy
Stream size : 185 MiB (13%)
Alignment : Split accross interleaves
Interleave, duration : 96 ms (2.40 video frames)
Interleave, preload duration : 96 ms
Language : English